:SAMPLES-PER-SECOND 30
:FULLY-SPECIFIED
:DEGREES
1039
root  56.4497 36.9761 -33.6582 -53.8682 -79.1789 50.3019
RightUpLeg  1.24263 -4.00348 -11.8088
RightLeg  59.289 15.0398 24.9015
RightFoot  5.69899 -3.37836 22.8913
RightToes  -8.14909e-010 0 -3.6325e-017
Spine  5.96617 4.24356 -3.32004
Spine1  5.32807 6.20529 -11.4754
HEad  -30.1896 -0.156777 -16.6783
LeftShoulder1  -0.692388 5.33113 -31.7051
LeftArm  -5.73991 19.7757 -36.861
LeftForeArm  20.2307 -19.1649 -4.18869
LeftHand  0.0884762 9.33985 3.91315
RightShoulder  -1.00455 -6.20568 30.6196
RightArm  21.1563 -5.98544 50.3857
RightForeArm  15.7459 13.8189 6.98329
RightHand  -0.012707 2.38894 -0.388514
LeftUpLeg  -20.1062 4.90888 -14.9341
LeftLeg  25.6809 8.87151 4.97534
LeftFoot  -0.819876 -1.13031 12.2834
LeftToes  1.648e-009 -9.21574e-011 2.55256e-011
1040
root  55.49 37.1078 -33.8017 -48.0524 -77.4946 44.0095
RightUpLeg  -3.25581 -4.02734 -12.8605
RightLeg  64.496 11.3078 23.7795
RightFoot  4.02278 -3.22928 23.7231
RightToes  -8.14909e-010 0 -3.6325e-017
Spine  7.38659 3.62647 -4.17992
Spine1  4.62927 5.32877 -11.8348
HEad  -32.631 -3.6608 -17.1561
LeftShoulder1  -0.553597 4.99132 -31.0533
LeftArm  -4.07142 19.1766 -38.1627
LeftForeArm  20.2519 -22.4699 -3.96025
LeftHand  0.0569701 7.72114 4.61077
RightShoulder  -1.03128 -6.24229 31.0761
RightArm  23.8127 -5.46053 49.9478
RightForeArm  13.6741 16.2811 6.18654
RightHand  -0.0156583 3.14367 -0.433359
LeftUpLeg  -17.895 4.71146 -14.9919
LeftLeg  25.837 7.39386 4.24262
LeftFoot  -2.33961 -0.917615 11.7969
LeftToes  1.648e-009 -9.21574e-011 2.55256e-011
1041
root  54.5215 37.3531 -33.9477 -41.059 -76.0558 36.7455
RightUpLeg  -7.82775 -3.65799 -13.1904
RightLeg  66.6254 8.3931 19.9007
RightFoot  1.10105 -2.22921 20.4078
RightToes  -8.14909e-010 0 -3.6325e-017
Spine  7.69671 3.15719 -4.67982
Spine1  4.83042 4.55802 -10.4962
HEad  -36.2513 -8.47965 -18.893
LeftShoulder1  -0.725019 5.42306 -31.6388
LeftArm  -2.45289 17.3373 -38.764
LeftForeArm  22.8829 -26.7072 -4.48919
LeftHand  0.0178014 6.57844 4.49189
RightShoulder  -0.904918 -5.97669 30.0163
RightArm  22.6239 -5.49873 50.2245
RightForeArm  11.869 18.6601 5.07758
RightHand  -0.0677065 3.70368 -1.12823
LeftUpLeg  -15.4313 3.58744 -14.252
LeftLeg  25.0415 6.57187 3.613
LeftFoot  -3.26759 -0.787401 11.3961
LeftToes  1.648e-009 -9.21574e-011 2.55256e-011
1042
root  53.598 37.5683 -34.1046 -34.6591 -74.1174 30.3423
RightUpLeg  -12.1789 -2.42442 -13.5116
RightLeg  65.9918 6.48724 15.0968
RightFoot  1.24101 -1.86729 16.8761
RightToes  -8.14909e-010 0 -3.6325e-017
Spine  8.24222 3.00426 -4.70525
Spine1  4.33847 4.25704 -9.92268
HEad  -39.4591 -14.2859 -20.6834
LeftShoulder1  -0.684995 5.33703 -31.1419
LeftArm  -2.39143 16.2998 -40.1447
LeftForeArm  26.9818 -31.6977 -5.43922
LeftHand  -0.0131257 5.85737 3.57836
RightShoulder  -0.959413 -6.12851 29.9675
RightArm  21.0871 -5.5675 49.1279
RightForeArm  10.4669 21.0462 4.46378
RightHand  -0.0853648 3.69321 -1.33452
LeftUpLeg  -13.3613 2.24231 -13.4553
LeftLeg  24.1797 5.6103 2.90898
LeftFoot  -4.20349 -0.658137 10.9226
LeftToes  1.648e-009 -9.21574e-011 2.55256e-011
1043
root  52.5507 37.8434 -34.2984 -26.4355 -70.6828 21.3137
RightUpLeg  -13.4722 -1.92834 -13.7823
RightLeg  61.9801 5.29189 10.2208
RightFoot  0.296107 -1.32858 13.0031
RightToes  -8.14909e-010 0 -3.6325e-017
Spine  8.85935 2.3701 -4.35105
Spine1  4.17961 3.45581 -9.10415
HEad  -42.0427 -20.4734 -22.6285
LeftShoulder1  -0.553141 5.0331 -30.0041
LeftArm  -1.61389 16.009 -41.3786
LeftForeArm  29.407 -37.2053 -6.71784
LeftHand  0.0166455 6.4155 5.16622
RightShoulder  -1.05046 -6.36041 30.2016
RightArm  19.8529 -5.90278 47.5659
RightForeArm  8.73036 22.972 4.4775
RightHand  -0.186248 4.41893 -2.50965
LeftUpLeg  -10.1194 0.808998 -12.1002
LeftLeg  22.9805 3.14804 1.68853
LeftFoot  -5.104 -0.537785 10.4048
LeftToes  1.648e-009 -9.21574e-011 2.55256e-011
1044
root  51.6056 38.0258 -34.5111 -21.4287 -67.4062 16.367
RightUpLeg  -15.3276 -0.15168 -14.6235
RightLeg  56.2704 4.03543 6.09339
RightFoot  -0.832945 -0.929311 10.0149
RightToes  -8.14909e-010 0 -3.6325e-017
Spine  8.58922 1.96823 -4.39766
Spine1  4.51371 2.85605 -7.78352
HEad  -46.2152 -27.1164 -26.4985
LeftShoulder1  -0.683426 5.35409 -30.7883
LeftArm  -0.344173 14.9934 -40.8284
LeftForeArm  30.7764 -42.9244 -8.34834
LeftHand  -0.012011 5.693 4.87905
RightShoulder  -0.913931 -6.069 29.0608
RightArm  17.589 -5.91713 47.1868
RightForeArm  10.1708 24.0028 4.60451
RightHand  -0.18448 5.36001 -2.32228
LeftUpLeg  -8.41237 -0.29115 -10.9321
LeftLeg  22.3588 0.531357 0.665446
LeftFoot  -5.85714 -0.443538 9.97787
LeftToes  1.648e-009 -9.21574e-011 2.55256e-011
1045
root  50.708 38.1474 -34.7239 -18.3033 -63.4435 13.5321
RightUpLeg  -16.2654 2.19397 -16.6009
RightLeg  49.028 3.49427 3.94494
RightFoot  -2.06368 -0.691152 8.35641
RightToes  -8.14909e-010 0 -3.6325e-017
Spine  9.1217 1.69406 -4.05224
Spine1  3.56665 2.61466 -7.70593
HEad  -51.353 -37.2178 -33.4825
LeftShoulder1  -0.635407 5.24098 -30.4178
LeftArm  0.298084 14.8742 -40.9173
LeftForeArm  31.6939 -48.117 -10.1471
LeftHand  -0.0562368 4.52771 4.81714
RightShoulder  -0.970485 -6.20389 29.3841
RightArm  16.2884 -6.65986 45.129
RightForeArm  11.5203 25.5502 4.87026
RightHand  -0.201961 3.63041 -2.84285
LeftUpLeg  -7.11831 -2.20673 -10.3758
LeftLeg  21.8396 -1.723 -0.0613435
LeftFoot  -6.51459 -0.370746 9.70109
LeftToes  1.648e-009 -9.21574e-011 2.55256e-011
1046
root  49.7779 38.1488 -35.018 -15.8655 -58.7904 11.8801
RightUpLeg  -16.558 5.22298 -19.4196
RightLeg  41.0589 4.88777 4.21628
RightFoot  -2.86877 -0.65842 8.60847
RightToes  -8.14909e-010 0 -3.6325e-017
Spine  8.71466 1.37126 -4.07444
Spine1  3.5607 2.41603 -7.93245
HEad  -53.1307 -49.459 -43.445
LeftShoulder1  -0.61113 5.19929 -29.8827
LeftArm  0.544738 14.1157 -41.4523
LeftForeArm  32.5369 -51.9065 -11.7256
LeftHand  -0.0571066 4.57412 5.29922
RightShoulder  -0.979163 -6.22216 29.4551
RightArm  15.7042 -6.77847 44.0851
RightForeArm  10.4755 24.8603 4.77491
RightHand  -0.247526 3.77215 -3.3839
LeftUpLeg  -6.89474 -4.94956 -10.0005
LeftLeg  22.3243 -3.77398 -0.791866
LeftFoot  -7.54214 -0.259121 9.15821
LeftToes  1.648e-009 -9.21574e-011 2.55256e-011
1047
root  48.8413 38.1375 -35.3276 -13.8682 -54.153 10.9686
RightUpLeg  -16.3542 9.93495 -22.6669
RightLeg  32.6442 7.76211 5.11847
RightFoot  -2.86935 -0.652308 8.51616
RightToes  -8.14909e-010 0 -3.6325e-017
Spine  7.76651 1.39558 -4.05803
Spine1  4.20994 2.59949 -7.75285
HEad  -45.9243 -63.0493 -61.2352
LeftShoulder1  -0.607096 5.19097 -29.8178
LeftArm  0.956102 12.5929 -41.7498
LeftForeArm  32.8537 -54.2925 -12.8965
LeftHand  -0.0714005 4.29057 5.59392
RightShoulder  -1.06559 -6.43704 29.795
RightArm  14.9921 -7.34403 42.7205
RightForeArm  10.2007 24.3356 4.67268
RightHand  -0.252475 4.21762 -3.26355
LeftUpLeg  -7.04923 -8.31788 -9.46755
LeftLeg  22.6605 -5.28602 -1.60251
LeftFoot  -8.52249 -0.154721 8.3534
LeftToes  1.648e-009 -9.21574e-011 2.55256e-011
1048
root  47.8817 38.1211 -35.6145 -12.3076 -48.6574 9.77429
RightUpLeg  -14.5562 16.325 -25.574
RightLeg  25.0878 9.0385 4.40815
RightFoot  -3.12763 -0.538081 7.18997
RightToes  -8.14909e-010 0 -3.6325e-017
Spine  7.78172 1.16509 -3.56347
Spine1  4.46187 2.37973 -7.32377
HEad  -22.903 -71.9083 -92.8353
LeftShoulder1  -0.625937 5.22605 -30.185
LeftArm  0.989143 11.3153 -41.8527
LeftForeArm  32.3058 -55.215 -13.4563
LeftHand  -0.0883511 3.94284 5.75952
RightShoulder  -1.06757 -6.46135 29.5632
RightArm  14.7038 -8.68318 41.9632
RightForeArm  11.7968 23.3291 4.39112
RightHand  0.0515356 4.25759 0.33567
LeftUpLeg  -6.63298 -13.083 -8.83872
LeftLeg  23.1139 -6.31158 -2.42246
LeftFoot  -9.42147 -0.0697909 7.57851
LeftToes  1.648e-009 -9.21574e-011 2.55256e-011
